<mxfile host="app.diagrams.net" modified="2023-06-02T12:47:54.583Z" agent="Mozilla/5.0 (Windows NT 10.0; Win64; x64) AppleWebKit/537.36 (KHTML, like Gecko) Chrome/114.0.0.0 Safari/537.36" version="21.3.3" etag="n5G5DIgHEUQWxjpC59xX" type="github">
  <diagram name="第 1 页" id="lV_z2JLoBa8YrTkMGzXM">
    <mxGraphModel>
      <root>
        <mxCell id="0" />
        <mxCell id="1" parent="0" />
      </root>
    </mxGraphModel>
  </diagram>
</mxfile>
